<?xml version="1.0" encoding="utf-8"?>
<!-- Generator: Adobe Illustrator 24.3.0, SVG Export Plug-In . SVG Version: 6.00 Build 0)  -->
<svg version="1.1" id="Layer_1" xmlns="http://www.w3.org/2000/svg" xmlns:xlink="http://www.w3.org/1999/xlink" x="0px" y="0px"
	 viewBox="0 0 600 100" style="enable-background:new 0 0 600 100;" xml:space="preserve">
<style type="text/css">
	.st0{clip-path:url(#SVGID_3_);}
	.st1{clip-path:url(#SVGID_4_);}
	.st2{clip-path:url(#SVGID_8_);fill:none;stroke:#FFFFFF;stroke-width:1.1109;}
	.st3{fill:#243061;}
	.st4{fill:none;stroke:#FFFFFF;stroke-width:0.4356;}
	.st5{fill:#FFFFFF;}
	.st6{fill:none;stroke:#FFFFFF;stroke-width:0.2465;}
	.st7{fill:none;stroke:#FFFFFF;stroke-width:1.0485;stroke-miterlimit:4.7728;}
	.st8{fill:none;stroke:#FFFFFF;stroke-width:4.763820e-02;stroke-miterlimit:1;}
	.st9{fill:#242F62;}
	.st10{fill:#0F0F2A;}
</style>
<g>
	<path class="st9" d="M15.7,75.5c4.7,0,7.2-2.5,7.2-5.9c0-3.3-2-5-5.7-5.5l-1-0.1c-2.6-0.4-3.5-1.3-3.5-2.6c0-1.5,1.1-2.5,3-2.5
		c1.6,0,3,0.5,4.6,1.5c0.1,0.1,0.3,0.1,0.4-0.1l1.3-2.1c0.1-0.2,0.1-0.3-0.1-0.4c-1.5-1.1-3.8-1.9-6.2-1.9c-3.9,0-6.4,2.3-6.4,5.7
		c0,3.2,2.1,4.9,5.7,5.4l1,0.1c2.6,0.4,3.5,1.3,3.5,2.6c0,1.6-1.3,2.7-3.6,2.7c-2.1,0-3.9-1-5.2-2c-0.1-0.1-0.3-0.1-0.4,0l-1.7,2
		c-0.1,0.1-0.1,0.3,0.1,0.4C10.2,74.4,12.9,75.5,15.7,75.5L15.7,75.5z M32.1,75.2c0.2,0,0.3-0.1,0.3-0.3v-7.5l5.5-11
		c0.1-0.1,0-0.3-0.2-0.3h-2.7c-0.2,0-0.3,0.1-0.4,0.3l-3.8,7.4h-0.1L27,56.4c-0.1-0.2-0.2-0.3-0.4-0.3h-2.8c-0.2,0-0.3,0.1-0.2,0.3
		l5.5,11v7.5c0,0.2,0.1,0.3,0.3,0.3H32.1L32.1,75.2z M45,75.5c4.7,0,7.2-2.5,7.2-5.9c0-3.3-2-5-5.7-5.5l-1-0.1
		c-2.6-0.4-3.5-1.3-3.5-2.6c0-1.5,1.1-2.5,3-2.5c1.6,0,3,0.5,4.6,1.5c0.1,0.1,0.3,0.1,0.4-0.1l1.3-2.1c0.1-0.2,0.1-0.3-0.1-0.4
		c-1.5-1.1-3.8-1.9-6.2-1.9c-3.9,0-6.4,2.3-6.4,5.7c0,3.2,2.1,4.9,5.7,5.4l1,0.1c2.6,0.4,3.5,1.3,3.5,2.6c0,1.6-1.3,2.7-3.6,2.7
		c-2.1,0-3.9-1-5.2-2c-0.1-0.1-0.3-0.1-0.4,0l-1.7,2c-0.1,0.1-0.1,0.3,0.1,0.4C39.5,74.4,42.2,75.5,45,75.5L45,75.5z M61.9,75.2
		c0.2,0,0.3-0.1,0.3-0.3V59.3c0-0.1,0.1-0.2,0.2-0.2h5c0.2,0,0.3-0.1,0.3-0.3v-2.4c0-0.2-0.1-0.3-0.3-0.3H53.7
		c-0.2,0-0.3,0.1-0.3,0.3v2.4c0,0.2,0.1,0.3,0.3,0.3h5c0.1,0,0.2,0.1,0.2,0.2v15.6c0,0.2,0.1,0.3,0.3,0.3H61.9L61.9,75.2z
		 M69.7,74.9c0,0.2,0.1,0.3,0.3,0.3h11.9c0.2,0,0.3-0.1,0.3-0.3v-2.4c0-0.2-0.1-0.3-0.3-0.3h-8.7c-0.1,0-0.2-0.1-0.2-0.2v-4.8
		c0-0.1,0.1-0.2,0.2-0.2h7.4c0.2,0,0.3-0.1,0.3-0.3v-2.4c0-0.2-0.1-0.3-0.3-0.3h-7.4c-0.1,0-0.2-0.1-0.2-0.2v-4.6
		c0-0.1,0.1-0.2,0.2-0.2h8.7c0.2,0,0.3-0.1,0.3-0.3v-2.4c0-0.2-0.1-0.3-0.3-0.3H70c-0.2,0-0.3,0.1-0.3,0.3V74.9L69.7,74.9z
		 M85.1,74.9c0,0.2,0.1,0.3,0.3,0.3h2.4c0.2,0,0.3-0.1,0.3-0.3V63.2h0.1l4,9c0.1,0.3,0.3,0.4,0.5,0.4h1.6c0.3,0,0.4-0.1,0.5-0.4l4-9
		h0.1v11.6c0,0.2,0.1,0.3,0.3,0.3h2.4c0.2,0,0.3-0.1,0.3-0.3V56.4c0-0.2-0.1-0.3-0.3-0.3h-2.5c-0.3,0-0.4,0.1-0.5,0.3l-5.2,11.7
		h-0.1l-5.2-11.7c-0.1-0.2-0.2-0.3-0.5-0.3h-2.5c-0.2,0-0.3,0.1-0.3,0.3V74.9L85.1,74.9z M104.2,74.9c-0.1,0.2,0,0.3,0.2,0.3h2.7
		c0.2,0,0.3-0.1,0.4-0.3l1.3-3.7h7.2l1.3,3.7c0.1,0.2,0.2,0.3,0.4,0.3h2.7c0.2,0,0.3-0.1,0.2-0.3L114,56.4c-0.1-0.2-0.2-0.3-0.4-0.3
		H111c-0.2,0-0.3,0.1-0.4,0.3L104.2,74.9L104.2,74.9z M109.7,68.3l2.5-7.4h0.1l2.5,7.4H109.7L109.7,68.3z M127.8,75.2
		c0.2,0,0.3-0.1,0.3-0.3V59.3c0-0.1,0.1-0.2,0.2-0.2h5c0.2,0,0.3-0.1,0.3-0.3v-2.4c0-0.2-0.1-0.3-0.3-0.3h-13.6
		c-0.2,0-0.3,0.1-0.3,0.3v2.4c0,0.2,0.1,0.3,0.3,0.3h5c0.1,0,0.2,0.1,0.2,0.2v15.6c0,0.2,0.1,0.3,0.3,0.3H127.8L127.8,75.2z
		 M135.6,74.9c0,0.2,0.1,0.3,0.3,0.3h2.7c0.2,0,0.3-0.1,0.3-0.3V56.4c0-0.2-0.1-0.3-0.3-0.3h-2.7c-0.2,0-0.3,0.1-0.3,0.3V74.9
		L135.6,74.9z M142.5,70.8c1,3.1,3.4,4.7,6.6,4.7c3.1,0,5.3-1.6,6.4-4.1c0.1-0.1,0-0.3-0.1-0.3l-2.4-1.1c-0.2-0.1-0.3,0-0.4,0.1
		c-0.6,1.3-1.7,2.5-3.6,2.5c-1.8,0-2.9-1-3.4-2.5c-0.3-0.8-0.3-1.5-0.3-4.3c0-2.8,0.1-3.6,0.3-4.3c0.5-1.5,1.6-2.5,3.4-2.5
		c1.9,0,2.9,1.1,3.6,2.5c0.1,0.1,0.2,0.2,0.4,0.1l2.4-1.1c0.1-0.1,0.2-0.2,0.1-0.3c-1.1-2.5-3.4-4.1-6.4-4.1c-3.2,0-5.6,1.6-6.6,4.7
		c-0.4,1.2-0.5,2.1-0.5,5.2C142,68.7,142.1,69.6,142.5,70.8L142.5,70.8z M162.6,74.9c-0.1,0.2,0,0.3,0.2,0.3h2.7
		c0.2,0,0.3-0.1,0.4-0.3l1.3-3.7h7.2l1.3,3.7c0.1,0.2,0.2,0.3,0.4,0.3h2.7c0.2,0,0.3-0.1,0.2-0.3l-6.4-18.5
		c-0.1-0.2-0.2-0.3-0.4-0.3h-2.6c-0.2,0-0.3,0.1-0.4,0.3L162.6,74.9L162.6,74.9z M168.1,68.3l2.5-7.4h0.1l2.5,7.4H168.1L168.1,68.3z
		 M180.9,74.9c0,0.2,0.1,0.3,0.3,0.3h2.4c0.2,0,0.3-0.1,0.3-0.3V61.8h0.1l7.8,13.1c0.1,0.2,0.3,0.3,0.5,0.3h2.5
		c0.2,0,0.3-0.1,0.3-0.3V56.4c0-0.2-0.1-0.3-0.3-0.3h-2.4c-0.2,0-0.3,0.1-0.3,0.3v13.1H192l-7.8-13.1c-0.1-0.2-0.3-0.3-0.5-0.3h-2.6
		c-0.2,0-0.3,0.1-0.3,0.3V74.9L180.9,74.9z M198.7,74.9c0,0.2,0.1,0.3,0.3,0.3h6.8c3.3,0,5.5-1.5,6.4-4.2c0.3-1,0.5-2,0.5-5.3
		c0-3.3-0.2-4.3-0.5-5.3c-0.9-2.8-3.1-4.2-6.4-4.2H199c-0.2,0-0.3,0.1-0.3,0.3V74.9L198.7,74.9z M202,72V59.3c0-0.1,0.1-0.2,0.2-0.2
		h2.8c2.1,0,3.4,0.7,3.9,2.4c0.2,0.5,0.3,1.4,0.3,4.1c0,2.7-0.1,3.6-0.3,4.1c-0.6,1.7-1.8,2.4-3.9,2.4h-2.8
		C202.1,72.2,202,72.2,202,72L202,72z M221.7,74.9c0,0.2,0.1,0.3,0.3,0.3h11.9c0.2,0,0.3-0.1,0.3-0.3v-2.4c0-0.2-0.1-0.3-0.3-0.3
		h-8.7c-0.1,0-0.2-0.1-0.2-0.2v-4.8c0-0.1,0.1-0.2,0.2-0.2h7.4c0.2,0,0.3-0.1,0.3-0.3v-2.4c0-0.2-0.1-0.3-0.3-0.3h-7.4
		c-0.1,0-0.2-0.1-0.2-0.2v-4.6c0-0.1,0.1-0.2,0.2-0.2h8.7c0.2,0,0.3-0.1,0.3-0.3v-2.4c0-0.2-0.1-0.3-0.3-0.3H222
		c-0.2,0-0.3,0.1-0.3,0.3V74.9L221.7,74.9z M244,75.2c0.2,0,0.3-0.1,0.3-0.3l6-18.5c0.1-0.2-0.1-0.3-0.2-0.3h-2.7
		c-0.2,0-0.3,0.1-0.4,0.3L243,69.9h-0.1l-4.3-13.5c-0.1-0.2-0.2-0.3-0.4-0.3h-2.7c-0.2,0-0.3,0.1-0.2,0.3l6,18.5
		c0.1,0.2,0.2,0.3,0.3,0.3H244L244,75.2z M258.9,75.5c3.3,0,5.8-1.6,6.7-4.6c0.4-1.2,0.5-2.2,0.5-5.2s-0.1-4.1-0.5-5.2
		c-1-3-3.4-4.6-6.7-4.6c-3.3,0-5.7,1.6-6.7,4.6c-0.4,1.2-0.5,2.2-0.5,5.2s0.1,4.1,0.5,5.2C253.1,73.9,255.6,75.5,258.9,75.5
		L258.9,75.5z M258.9,72.5c-1.9,0-3-1-3.5-2.5c-0.2-0.7-0.3-1.7-0.3-4.4c0-2.7,0.1-3.7,0.3-4.4c0.5-1.5,1.7-2.5,3.5-2.5
		c1.9,0,3,1,3.6,2.5c0.2,0.7,0.3,1.7,0.3,4.4c0,2.7-0.1,3.7-0.3,4.4C261.9,71.6,260.8,72.5,258.9,72.5L258.9,72.5z M269.2,74.9
		c0,0.2,0.1,0.3,0.3,0.3h11.9c0.2,0,0.3-0.1,0.3-0.3v-2.4c0-0.2-0.1-0.3-0.3-0.3h-8.7c-0.1,0-0.2-0.1-0.2-0.2V56.4
		c0-0.2-0.1-0.3-0.3-0.3h-2.7c-0.2,0-0.3,0.1-0.3,0.3V74.9L269.2,74.9z M290.1,72.5c-2.2,0-3.7-1.5-3.7-4.1v-12
		c0-0.2-0.1-0.3-0.3-0.3h-2.7c-0.2,0-0.3,0.1-0.3,0.3v12.1c0,4.4,3,7,7,7c4,0,7-2.6,7-7V56.4c0-0.2-0.1-0.3-0.3-0.3h-2.7
		c-0.2,0-0.3,0.1-0.3,0.3v12C293.8,71.1,292.3,72.5,290.1,72.5L290.1,72.5z M307.6,75.2c0.2,0,0.3-0.1,0.3-0.3V59.3
		c0-0.1,0.1-0.2,0.2-0.2h5c0.2,0,0.3-0.1,0.3-0.3v-2.4c0-0.2-0.1-0.3-0.3-0.3h-13.6c-0.2,0-0.3,0.1-0.3,0.3v2.4
		c0,0.2,0.1,0.3,0.3,0.3h5c0.1,0,0.2,0.1,0.2,0.2v15.6c0,0.2,0.1,0.3,0.3,0.3H307.6L307.6,75.2z M315.5,74.9c0,0.2,0.1,0.3,0.3,0.3
		h2.7c0.2,0,0.3-0.1,0.3-0.3V56.4c0-0.2-0.1-0.3-0.3-0.3h-2.7c-0.2,0-0.3,0.1-0.3,0.3V74.9L315.5,74.9z M329.1,75.5
		c3.3,0,5.8-1.6,6.7-4.6c0.4-1.2,0.5-2.2,0.5-5.2s-0.1-4.1-0.5-5.2c-1-3-3.4-4.6-6.7-4.6c-3.3,0-5.7,1.6-6.7,4.6
		c-0.4,1.2-0.5,2.2-0.5,5.2s0.1,4.1,0.5,5.2C323.4,73.9,325.8,75.5,329.1,75.5L329.1,75.5z M329.1,72.5c-1.9,0-3-1-3.5-2.5
		c-0.2-0.7-0.3-1.7-0.3-4.4c0-2.7,0.1-3.7,0.3-4.4c0.5-1.5,1.7-2.5,3.5-2.5c1.9,0,3,1,3.6,2.5c0.2,0.7,0.3,1.7,0.3,4.4
		c0,2.7-0.1,3.7-0.3,4.4C332.1,71.6,331,72.5,329.1,72.5L329.1,72.5z M339.4,74.9c0,0.2,0.1,0.3,0.3,0.3h2.4c0.2,0,0.3-0.1,0.3-0.3
		V61.8h0.1l7.8,13.1c0.1,0.2,0.3,0.3,0.5,0.3h2.5c0.2,0,0.3-0.1,0.3-0.3V56.4c0-0.2-0.1-0.3-0.3-0.3h-2.4c-0.2,0-0.3,0.1-0.3,0.3
		v13.1h-0.1l-7.8-13.1c-0.1-0.2-0.3-0.3-0.5-0.3h-2.6c-0.2,0-0.3,0.1-0.3,0.3V74.9L339.4,74.9z M355.7,74.9c-0.1,0.2,0,0.3,0.2,0.3
		h2.7c0.2,0,0.3-0.1,0.4-0.3l1.3-3.7h7.2l1.3,3.7c0.1,0.2,0.2,0.3,0.4,0.3h2.7c0.2,0,0.3-0.1,0.2-0.3l-6.4-18.5
		c-0.1-0.2-0.2-0.3-0.4-0.3h-2.6c-0.2,0-0.3,0.1-0.4,0.3L355.7,74.9L355.7,74.9z M361.2,68.3l2.5-7.4h0.1l2.5,7.4H361.2L361.2,68.3z
		 M387.9,75.2c0.2,0,0.3-0.2,0.2-0.4l-4-7.8c2.2-0.8,3.6-2.7,3.6-5.2c0-3.4-2.6-5.7-6.1-5.7h-7.4c-0.2,0-0.3,0.1-0.3,0.3v18.5
		c0,0.2,0.1,0.3,0.3,0.3h2.7c0.2,0,0.3-0.1,0.3-0.3v-7.3c0-0.1,0.1-0.2,0.2-0.2h3.3l3.6,7.4c0.1,0.2,0.2,0.3,0.4,0.3H387.9
		L387.9,75.2z M381.5,64.5h-4.1c-0.1,0-0.2-0.1-0.2-0.2v-5.1c0-0.1,0.1-0.2,0.2-0.2h4.1c1.7,0,2.9,1.1,2.9,2.7
		C384.4,63.4,383.3,64.5,381.5,64.5L381.5,64.5z M396.9,75.2c0.2,0,0.3-0.1,0.3-0.3v-7.5l5.5-11c0.1-0.1,0-0.3-0.2-0.3h-2.7
		c-0.2,0-0.3,0.1-0.4,0.3l-3.8,7.4h-0.1l-3.7-7.4c-0.1-0.2-0.2-0.3-0.4-0.3h-2.8c-0.2,0-0.3,0.1-0.2,0.3l5.5,11v7.5
		c0,0.2,0.1,0.3,0.3,0.3H396.9L396.9,75.2z M410,74.9c0,0.2,0.1,0.3,0.3,0.3h2.4c0.2,0,0.3-0.1,0.3-0.3V63.2h0.1l4,9
		c0.1,0.3,0.3,0.4,0.5,0.4h1.6c0.3,0,0.4-0.1,0.5-0.4l4-9h0.1v11.6c0,0.2,0.1,0.3,0.3,0.3h2.4c0.2,0,0.3-0.1,0.3-0.3V56.4
		c0-0.2-0.1-0.3-0.3-0.3h-2.5c-0.3,0-0.4,0.1-0.5,0.3l-5.2,11.7h-0.1l-5.2-11.7c-0.1-0.2-0.2-0.3-0.5-0.3h-2.5
		c-0.2,0-0.3,0.1-0.3,0.3V74.9L410,74.9z M430.6,74.9c0,0.2,0.1,0.3,0.3,0.3h2.7c0.2,0,0.3-0.1,0.3-0.3V56.4c0-0.2-0.1-0.3-0.3-0.3
		h-2.7c-0.2,0-0.3,0.1-0.3,0.3V74.9L430.6,74.9z M437.5,70.8c1,3.1,3.4,4.7,6.6,4.7c3.1,0,5.3-1.6,6.4-4.1c0.1-0.1,0-0.3-0.1-0.3
		l-2.4-1.1c-0.2-0.1-0.3,0-0.4,0.1c-0.6,1.3-1.7,2.5-3.6,2.5c-1.8,0-2.9-1-3.4-2.5c-0.3-0.8-0.3-1.5-0.3-4.3c0-2.8,0.1-3.6,0.3-4.3
		c0.5-1.5,1.6-2.5,3.4-2.5c1.9,0,2.9,1.1,3.6,2.5c0.1,0.1,0.2,0.2,0.4,0.1l2.4-1.1c0.1-0.1,0.2-0.2,0.1-0.3
		c-1.1-2.5-3.4-4.1-6.4-4.1c-3.2,0-5.6,1.6-6.6,4.7c-0.4,1.2-0.5,2.1-0.5,5.2C437,68.7,437.1,69.6,437.5,70.8L437.5,70.8z M467,75.2
		c0.2,0,0.3-0.2,0.2-0.4l-4-7.8c2.2-0.8,3.6-2.7,3.6-5.2c0-3.4-2.6-5.7-6.1-5.7h-7.4c-0.2,0-0.3,0.1-0.3,0.3v18.5
		c0,0.2,0.1,0.3,0.3,0.3h2.7c0.2,0,0.3-0.1,0.3-0.3v-7.3c0-0.1,0.1-0.2,0.2-0.2h3.3l3.6,7.4c0.1,0.2,0.2,0.3,0.4,0.3H467L467,75.2z
		 M460.6,64.5h-4.1c-0.1,0-0.2-0.1-0.2-0.2v-5.1c0-0.1,0.1-0.2,0.2-0.2h4.1c1.7,0,2.9,1.1,2.9,2.7C463.5,63.4,462.4,64.5,460.6,64.5
		L460.6,64.5z M476.4,75.5c3.3,0,5.8-1.6,6.7-4.6c0.4-1.2,0.5-2.2,0.5-5.2s-0.1-4.1-0.5-5.2c-1-3-3.4-4.6-6.7-4.6
		c-3.3,0-5.7,1.6-6.7,4.6c-0.4,1.2-0.5,2.2-0.5,5.2s0.1,4.1,0.5,5.2C470.7,73.9,473.2,75.5,476.4,75.5L476.4,75.5z M476.4,72.5
		c-1.9,0-3-1-3.5-2.5c-0.2-0.7-0.3-1.7-0.3-4.4c0-2.7,0.1-3.7,0.3-4.4c0.5-1.5,1.7-2.5,3.5-2.5c1.9,0,3,1,3.6,2.5
		c0.2,0.7,0.3,1.7,0.3,4.4c0,2.7-0.1,3.7-0.3,4.4C479.5,71.6,478.3,72.5,476.4,72.5L476.4,72.5z M486.8,74.9c0,0.2,0.1,0.3,0.3,0.3
		h6.8c4.2,0,6.6-1.8,6.6-5.6c0-2.3-1.4-3.8-2.5-4.3v-0.1c1.2-0.6,2.2-1.9,2.2-4c0-3.1-1.9-5.1-5.9-5.1H487c-0.2,0-0.3,0.1-0.3,0.3
		V74.9L486.8,74.9z M490.2,64.1c-0.1,0-0.2-0.1-0.2-0.2v-4.7c0-0.1,0.1-0.2,0.2-0.2h3.8c1.7,0,2.7,1,2.7,2.5c0,1.5-1,2.5-2.7,2.5
		H490.2L490.2,64.1z M490.1,72.1v-5c0-0.1,0.1-0.2,0.2-0.2h4c1.8,0,2.9,1.1,2.9,2.6c0,1.6-1,2.7-2.9,2.7h-4
		C490.1,72.3,490.1,72.2,490.1,72.1L490.1,72.1z M503.2,74.9c0,0.2,0.1,0.3,0.3,0.3h2.7c0.2,0,0.3-0.1,0.3-0.3V56.4
		c0-0.2-0.1-0.3-0.3-0.3h-2.7c-0.2,0-0.3,0.1-0.3,0.3V74.9L503.2,74.9z M516.8,75.5c3.3,0,5.8-1.6,6.7-4.6c0.4-1.2,0.5-2.2,0.5-5.2
		s-0.1-4.1-0.5-5.2c-1-3-3.4-4.6-6.7-4.6c-3.3,0-5.7,1.6-6.7,4.6c-0.4,1.2-0.5,2.2-0.5,5.2s0.1,4.1,0.5,5.2
		C511.1,73.9,513.5,75.5,516.8,75.5L516.8,75.5z M516.8,72.5c-1.9,0-3-1-3.5-2.5c-0.2-0.7-0.3-1.7-0.3-4.4c0-2.7,0.1-3.7,0.3-4.4
		c0.5-1.5,1.7-2.5,3.5-2.5c1.9,0,3,1,3.6,2.5c0.2,0.7,0.3,1.7,0.3,4.4c0,2.7-0.1,3.7-0.3,4.4C519.8,71.6,518.7,72.5,516.8,72.5
		L516.8,72.5z M527.1,74.9c0,0.2,0.1,0.3,0.3,0.3h11.9c0.2,0,0.3-0.1,0.3-0.3v-2.4c0-0.2-0.1-0.3-0.3-0.3h-8.7
		c-0.1,0-0.2-0.1-0.2-0.2V56.4c0-0.2-0.1-0.3-0.3-0.3h-2.7c-0.2,0-0.3,0.1-0.3,0.3V74.9L527.1,74.9z M547.8,75.5
		c3.3,0,5.8-1.6,6.7-4.6c0.4-1.2,0.5-2.2,0.5-5.2s-0.1-4.1-0.5-5.2c-1-3-3.4-4.6-6.7-4.6c-3.3,0-5.7,1.6-6.7,4.6
		c-0.4,1.2-0.5,2.2-0.5,5.2s0.1,4.1,0.5,5.2C542.1,73.9,544.6,75.5,547.8,75.5L547.8,75.5z M547.8,72.5c-1.9,0-3-1-3.5-2.5
		c-0.2-0.7-0.3-1.7-0.3-4.4c0-2.7,0.1-3.7,0.3-4.4c0.5-1.5,1.7-2.5,3.5-2.5c1.9,0,3,1,3.6,2.5c0.2,0.7,0.3,1.7,0.3,4.4
		c0,2.7-0.1,3.7-0.3,4.4C550.9,71.6,549.7,72.5,547.8,72.5L547.8,72.5z M558.1,70.9c1,3,3.4,4.6,6.8,4.6c3.3,0,5.8-1.7,6.7-4.7
		c0.3-1,0.4-2.6,0.4-4.2V65c0-0.2-0.1-0.3-0.3-0.3h-6.3c-0.2,0-0.3,0.1-0.3,0.3v2.2c0,0.2,0.1,0.3,0.3,0.3h3.1
		c0.1,0,0.2,0.1,0.2,0.2c0,1.1-0.1,1.9-0.3,2.5c-0.5,1.5-1.9,2.4-3.6,2.4c-1.9,0-3.1-1-3.6-2.5c-0.2-0.7-0.3-1.7-0.3-4.4
		c0-2.7,0.1-3.7,0.3-4.4c0.5-1.5,1.7-2.5,3.6-2.5c1.8,0,3,0.8,3.8,2.4c0.1,0.1,0.2,0.2,0.4,0.1l2.4-1c0.1-0.1,0.2-0.3,0.1-0.4
		c-0.8-2.1-3.1-4-6.6-4c-3.4,0-5.8,1.6-6.8,4.6c-0.4,1.2-0.5,2.2-0.5,5.2S557.7,69.7,558.1,70.9L558.1,70.9z M581.7,75.2
		c0.2,0,0.3-0.1,0.3-0.3v-7.5l5.5-11c0.1-0.1,0-0.3-0.2-0.3h-2.7c-0.2,0-0.3,0.1-0.4,0.3l-3.8,7.4h-0.1l-3.7-7.4
		c-0.1-0.2-0.2-0.3-0.4-0.3h-2.8c-0.2,0-0.3,0.1-0.2,0.3l5.5,11v7.5c0,0.2,0.1,0.3,0.3,0.3H581.7L581.7,75.2z"/>
	<path class="st9" d="M10.2,47.6c0,0.2,0.1,0.3,0.3,0.3h1c0.2,0,0.3-0.1,0.3-0.3V29.1c0-0.2-0.1-0.3-0.3-0.3h-1
		c-0.2,0-0.3,0.1-0.3,0.3V47.6L10.2,47.6z M16.5,47.6c0,0.2,0.1,0.3,0.3,0.3h1c0.2,0,0.3-0.1,0.3-0.3V31.9h0.1l9.4,15.7
		c0.1,0.2,0.3,0.3,0.5,0.3h1.1c0.2,0,0.3-0.1,0.3-0.3V29.1c0-0.2-0.1-0.3-0.3-0.3h-1c-0.2,0-0.3,0.1-0.3,0.3v15.7h-0.1l-9.5-15.7
		c-0.1-0.2-0.3-0.3-0.5-0.3h-1c-0.2,0-0.3,0.1-0.3,0.3V47.6L16.5,47.6z M39.4,47.9c0.2,0,0.3-0.1,0.3-0.3V30.5
		c0-0.1,0.1-0.2,0.2-0.2h5.5c0.2,0,0.3-0.1,0.3-0.3v-1c0-0.2-0.1-0.3-0.3-0.3H32.4c-0.2,0-0.3,0.1-0.3,0.3v1c0,0.2,0.1,0.3,0.3,0.3
		h5.5c0.1,0,0.2,0.1,0.2,0.2v17.1c0,0.2,0.1,0.3,0.3,0.3H39.4L39.4,47.9z M48.3,47.6c0,0.2,0.1,0.3,0.3,0.3h10.9
		c0.2,0,0.3-0.1,0.3-0.3v-1c0-0.2-0.1-0.3-0.3-0.3h-9.4c-0.1,0-0.2-0.1-0.2-0.2v-7.1c0-0.1,0.1-0.2,0.2-0.2h8.1
		c0.2,0,0.3-0.1,0.3-0.3v-1c0-0.2-0.1-0.3-0.3-0.3h-8.1c-0.1,0-0.2-0.1-0.2-0.2v-6.8c0-0.1,0.1-0.2,0.2-0.2h9.4
		c0.2,0,0.3-0.1,0.3-0.3v-1c0-0.2-0.1-0.3-0.3-0.3H48.6c-0.2,0-0.3,0.1-0.3,0.3V47.6L48.3,47.6z M75.9,47.9c0.2,0,0.3-0.1,0.1-0.3
		l-4.1-8.4c2.4-0.6,3.9-2.4,3.9-5c0-3.2-2.2-5.3-5.8-5.3h-6.4c-0.2,0-0.3,0.1-0.3,0.3v18.5c0,0.2,0.1,0.3,0.3,0.3h1
		c0.2,0,0.3-0.1,0.3-0.3v-8.1c0-0.1,0.1-0.2,0.2-0.2H70h0.3l4,8.3c0.1,0.2,0.2,0.3,0.3,0.3H75.9L75.9,47.9z M70,37.8h-4.9
		c-0.1,0-0.2-0.1-0.2-0.2v-7.2c0-0.1,0.1-0.2,0.2-0.2H70c2.7,0,4.2,1.4,4.2,3.8C74.2,36.5,72.7,37.8,70,37.8L70,37.8z M80,47.6
		c0,0.2,0.1,0.3,0.3,0.3h1c0.2,0,0.3-0.1,0.3-0.3V31.9h0.1l9.4,15.7c0.1,0.2,0.3,0.3,0.5,0.3h1.1c0.2,0,0.3-0.1,0.3-0.3V29.1
		c0-0.2-0.1-0.3-0.3-0.3h-1c-0.2,0-0.3,0.1-0.3,0.3v15.7h-0.1l-9.5-15.7c-0.1-0.2-0.3-0.3-0.5-0.3h-1c-0.2,0-0.3,0.1-0.3,0.3V47.6
		L80,47.6z M95.9,47.6c-0.1,0.2,0,0.3,0.2,0.3h1.1c0.2,0,0.3-0.1,0.4-0.3l1.7-4.7h8.3l1.7,4.7c0.1,0.2,0.2,0.3,0.4,0.3h1.1
		c0.2,0,0.3-0.1,0.2-0.3l-6.6-18.5c-0.1-0.2-0.1-0.3-0.3-0.3h-1c-0.2,0-0.3,0.1-0.3,0.3L95.9,47.6L95.9,47.6z M99.8,41.4l3.6-10h0.1
		l3.6,10H99.8L99.8,41.4z M116.9,47.9c0.2,0,0.3-0.1,0.3-0.3V30.5c0-0.1,0.1-0.2,0.2-0.2h5.5c0.2,0,0.3-0.1,0.3-0.3v-1
		c0-0.2-0.1-0.3-0.3-0.3H110c-0.2,0-0.3,0.1-0.3,0.3v1c0,0.2,0.1,0.3,0.3,0.3h5.5c0.1,0,0.2,0.1,0.2,0.2v17.1c0,0.2,0.1,0.3,0.3,0.3
		H116.9L116.9,47.9z M125.9,47.6c0,0.2,0.1,0.3,0.3,0.3h1c0.2,0,0.3-0.1,0.3-0.3V29.1c0-0.2-0.1-0.3-0.3-0.3h-1
		c-0.2,0-0.3,0.1-0.3,0.3V47.6L125.9,47.6z M138.1,48.1c3.1,0,5.2-1.5,6.1-4.3c0.3-1,0.6-2.2,0.6-5.5c0-3.3-0.2-4.5-0.6-5.5
		c-0.9-2.8-3.1-4.3-6.1-4.3c-3.1,0-5.2,1.5-6.2,4.3c-0.3,1-0.6,2.2-0.6,5.5c0,3.3,0.2,4.5,0.6,5.5C132.8,46.6,135,48.1,138.1,48.1
		L138.1,48.1z M143.1,38.3c0,3.1-0.2,4.3-0.5,5.1c-0.7,2.1-2.2,3.2-4.6,3.2c-2.4,0-3.9-1.1-4.6-3.2c-0.3-0.8-0.5-2-0.5-5.1
		c0-3.1,0.2-4.3,0.5-5.1c0.7-2.1,2.2-3.2,4.6-3.2c2.4,0,3.9,1.1,4.6,3.2C142.9,34,143.1,35.3,143.1,38.3L143.1,38.3z M148.6,47.6
		c0,0.2,0.1,0.3,0.3,0.3h1c0.2,0,0.3-0.1,0.3-0.3V31.9h0.1l9.4,15.7c0.1,0.2,0.3,0.3,0.5,0.3h1.1c0.2,0,0.3-0.1,0.3-0.3V29.1
		c0-0.2-0.1-0.3-0.3-0.3h-1c-0.2,0-0.3,0.1-0.3,0.3v15.7h-0.1l-9.5-15.7c-0.1-0.2-0.3-0.3-0.5-0.3h-1c-0.2,0-0.3,0.1-0.3,0.3V47.6
		L148.6,47.6z M164.5,47.6c-0.1,0.2,0,0.3,0.2,0.3h1.1c0.2,0,0.3-0.1,0.4-0.3l1.7-4.7h8.3l1.7,4.7c0.1,0.2,0.2,0.3,0.4,0.3h1.1
		c0.2,0,0.3-0.1,0.2-0.3l-6.6-18.5c-0.1-0.2-0.1-0.3-0.3-0.3h-1c-0.2,0-0.3,0.1-0.3,0.3L164.5,47.6L164.5,47.6z M168.4,41.4l3.6-10
		h0.1l3.6,10H168.4L168.4,41.4z M182.4,47.6c0,0.2,0.1,0.3,0.3,0.3h10.9c0.2,0,0.3-0.1,0.3-0.3v-1c0-0.2-0.1-0.3-0.3-0.3h-9.4
		c-0.1,0-0.2-0.1-0.2-0.2V29.1c0-0.2-0.1-0.3-0.3-0.3h-1c-0.2,0-0.3,0.1-0.3,0.3V47.6L182.4,47.6z M201.5,46.6
		c0.9,0.9,2.5,1.6,4.1,1.6c3.4,0,5.6-1.9,5.6-6v-13c0-0.2-0.1-0.3-0.3-0.3h-1c-0.2,0-0.3,0.1-0.3,0.3v13c0,3.2-1.5,4.5-3.9,4.5
		c-1.2,0-2.3-0.6-3-1.1c-0.1-0.1-0.3-0.1-0.4,0l-0.8,0.7C201.4,46.3,201.4,46.5,201.5,46.6L201.5,46.6z M221.7,48.1
		c3.1,0,5.2-1.5,6.1-4.3c0.3-1,0.6-2.2,0.6-5.5c0-3.3-0.2-4.5-0.6-5.5c-0.9-2.8-3.1-4.3-6.1-4.3c-3.1,0-5.2,1.5-6.2,4.3
		c-0.3,1-0.6,2.2-0.6,5.5c0,3.3,0.2,4.5,0.6,5.5C216.4,46.6,218.6,48.1,221.7,48.1L221.7,48.1z M226.7,38.3c0,3.1-0.2,4.3-0.5,5.1
		c-0.7,2.1-2.2,3.2-4.6,3.2c-2.4,0-3.9-1.1-4.6-3.2c-0.3-0.8-0.5-2-0.5-5.1c0-3.1,0.2-4.3,0.5-5.1c0.7-2.1,2.2-3.2,4.6-3.2
		c2.4,0,3.9,1.1,4.6,3.2C226.5,34,226.7,35.3,226.7,38.3L226.7,38.3z M233.7,29.1c0-0.2-0.1-0.3-0.3-0.3h-1c-0.2,0-0.3,0.1-0.3,0.3
		v12.2c0,4.6,2.5,6.9,6.4,6.9c3.9,0,6.5-2.2,6.5-6.9V29.1c0-0.2-0.1-0.3-0.3-0.3h-1c-0.2,0-0.3,0.1-0.3,0.3v12.2
		c0,3.6-1.8,5.3-4.9,5.3c-3,0-4.8-1.7-4.8-5.3V29.1L233.7,29.1z M262,47.9c0.2,0,0.3-0.1,0.1-0.3l-4.1-8.4c2.4-0.6,3.9-2.4,3.9-5
		c0-3.2-2.2-5.3-5.8-5.3h-6.4c-0.2,0-0.3,0.1-0.3,0.3v18.5c0,0.2,0.1,0.3,0.3,0.3h1c0.2,0,0.3-0.1,0.3-0.3v-8.1
		c0-0.1,0.1-0.2,0.2-0.2h4.9h0.3l4,8.3c0.1,0.2,0.2,0.3,0.3,0.3H262L262,47.9z M256.1,37.8h-4.9c-0.1,0-0.2-0.1-0.2-0.2v-7.2
		c0-0.1,0.1-0.2,0.2-0.2h4.9c2.7,0,4.2,1.4,4.2,3.8C260.3,36.5,258.8,37.8,256.1,37.8L256.1,37.8z M266.1,47.6
		c0,0.2,0.1,0.3,0.3,0.3h1c0.2,0,0.3-0.1,0.3-0.3V31.9h0.1l9.4,15.7c0.1,0.2,0.3,0.3,0.5,0.3h1.1c0.2,0,0.3-0.1,0.3-0.3V29.1
		c0-0.2-0.1-0.3-0.3-0.3h-1c-0.2,0-0.3,0.1-0.3,0.3v15.7h-0.1l-9.5-15.7c-0.1-0.2-0.3-0.3-0.5-0.3h-1c-0.2,0-0.3,0.1-0.3,0.3V47.6
		L266.1,47.6z M282,47.6c-0.1,0.2,0,0.3,0.2,0.3h1.1c0.2,0,0.3-0.1,0.4-0.3l1.7-4.7h8.3l1.7,4.7c0.1,0.2,0.2,0.3,0.4,0.3h1.1
		c0.2,0,0.3-0.1,0.2-0.3l-6.6-18.5c-0.1-0.2-0.1-0.3-0.3-0.3h-1c-0.2,0-0.3,0.1-0.3,0.3L282,47.6L282,47.6z M285.9,41.4l3.6-10h0.1
		l3.6,10H285.9L285.9,41.4z M299.9,47.6c0,0.2,0.1,0.3,0.3,0.3h10.9c0.2,0,0.3-0.1,0.3-0.3v-1c0-0.2-0.1-0.3-0.3-0.3h-9.4
		c-0.1,0-0.2-0.1-0.2-0.2V29.1c0-0.2-0.1-0.3-0.3-0.3h-1c-0.2,0-0.3,0.1-0.3,0.3V47.6L299.9,47.6z M326.4,48.1
		c3.1,0,5.2-1.5,6.1-4.3c0.3-1,0.6-2.2,0.6-5.5c0-3.3-0.2-4.5-0.6-5.5c-0.9-2.8-3.1-4.3-6.1-4.3c-3.1,0-5.2,1.5-6.2,4.3
		c-0.3,1-0.6,2.2-0.6,5.5c0,3.3,0.2,4.5,0.6,5.5C321.2,46.6,323.3,48.1,326.4,48.1L326.4,48.1z M331.5,38.3c0,3.1-0.2,4.3-0.5,5.1
		c-0.7,2.1-2.2,3.2-4.6,3.2c-2.4,0-3.9-1.1-4.6-3.2c-0.3-0.8-0.5-2-0.5-5.1c0-3.1,0.2-4.3,0.5-5.1c0.7-2.1,2.2-3.2,4.6-3.2
		c2.4,0,3.9,1.1,4.6,3.2C331.3,34,331.5,35.3,331.5,38.3L331.5,38.3z M337,47.6c0,0.2,0.1,0.3,0.3,0.3h1c0.2,0,0.3-0.1,0.3-0.3v-8.3
		c0-0.1,0.1-0.2,0.2-0.2h8.1c0.2,0,0.3-0.1,0.3-0.3v-1c0-0.2-0.1-0.3-0.3-0.3h-8.1c-0.1,0-0.2-0.1-0.2-0.2v-7c0-0.1,0.1-0.2,0.2-0.2
		h9.4c0.2,0,0.3-0.1,0.3-0.3v-1c0-0.2-0.1-0.3-0.3-0.3h-10.9c-0.2,0-0.3,0.1-0.3,0.3V47.6L337,47.6z"/>
</g>
</svg>
