<?xml version="1.0" encoding="UTF-8" standalone="no"?>
<svg
   xmlns:dc="http://purl.org/dc/elements/1.1/"
   xmlns:cc="http://creativecommons.org/ns#"
   xmlns:rdf="http://www.w3.org/1999/02/22-rdf-syntax-ns#"
   xmlns:svg="http://www.w3.org/2000/svg"
   xmlns="http://www.w3.org/2000/svg"
   xmlns:sodipodi="http://sodipodi.sourceforge.net/DTD/sodipodi-0.dtd"
   xmlns:inkscape="http://www.inkscape.org/namespaces/inkscape"
   width="640"
   height="1000"
   version="1.1"
   id="svg4287"
   sodipodi:docname="Open_Access_logo_green_transparent.svg"
   inkscape:version="0.92.3 (2405546, 2018-03-11)">
  <defs
     id="defs4291" />
  <sodipodi:namedview
     pagecolor="#ffffff"
     bordercolor="#666666"
     borderopacity="1"
     objecttolerance="10"
     gridtolerance="10"
     guidetolerance="10"
     inkscape:pageopacity="0"
     inkscape:pageshadow="2"
     inkscape:window-width="2400"
     inkscape:window-height="1284"
     id="namedview4289"
     showgrid="false"
     inkscape:zoom="1.091"
     inkscape:cx="320"
     inkscape:cy="500"
     inkscape:window-x="2091"
     inkscape:window-y="-9"
     inkscape:window-maximized="1"
     inkscape:current-layer="svg4287" />
  <metadata
     id="metadata4277">
    <rdf:RDF>
      <cc:Work
         rdf:about="">
        <dc:format>image/svg+xml</dc:format>
        <dc:type
           rdf:resource="http://purl.org/dc/dcmitype/StillImage" />
        <dc:creator>art designer at PLoS, modified by Wikipedia users Nina, Beao, JakobVoss, and AnonMoos</dc:creator>
        <dc:description>Open Access logo, converted into svg, designed by PLoS. This version with transparent background.</dc:description>
        <dc:source>http://commons.wikimedia.org/wiki/File:Open_Access_logo_PLoS_white.svg</dc:source>
        <dc:license
           rdf:resource="http://creativecommons.org/licenses/by-sa/3.0/" />
        <cc:license
           rdf:resource="http://creativecommons.org/licenses/by-sa/3.0/" />
        <cc:attributionName>art designer at PLoS, modified by Wikipedia users Nina, Beao, JakobVoss, and AnonMoos</cc:attributionName>
        <cc:attributionURL>http://www.plos.org/</cc:attributionURL>
        <dc:title></dc:title>
      </cc:Work>
    </rdf:RDF>
  </metadata>
  <g
     stroke="#f68212"
     stroke-width="104.764"
     fill="none"
     id="g4283">
    <path
       d="M111.387,308.135V272.408A209.21,209.214 0 0,1 529.807,272.408V530.834"
       id="path4279" />
    <circle
       cx="320.004"
       cy="680.729"
       r="256.083"
       id="circle4281" />
  </g>
  <circle
     fill="#f68212"
     cx="321.01"
     cy="681.659"
     r="86.4287"
     id="circle4285" />
  <path
     style="fill:#008000;stroke-width:0.91659027"
     d="M 292.96059,987.68396 C 279.72166,986.5429 257.22921,982.63731 243.46471,979.08955 128.4742,949.45124 40.459546,856.21452 17.644998,739.87168 13.531547,718.89512 12.571517,707.85536 12.543704,681.2099 c -0.03175,-30.42108 1.620095,-45.63436 7.792379,-71.76665 13.103186,-55.47639 41.162688,-105.59357 81.962337,-146.39322 49.85689,-49.8569 111.92416,-79.78719 183.78774,-88.62677 12.63958,-1.55473 55.16641,-1.5565 67.82768,-0.003 42.69667,5.23935 82.36219,18.01965 117.09441,37.72801 l 6.64528,3.77079 -0.0179,-77.25384 c -0.019,-81.92949 -0.25613,-87.4168 -4.49534,-104.02017 -11.58202,-45.3623 -41.30817,-82.30433 -83.02116,-103.17422 -31.31632,-15.66821 -68.69849,-20.17152 -103.57471,-12.47733 -56.60824,12.4886 -102.6716,56.42874 -117.59043,112.17032 -4.20685,15.71818 -4.98298,22.85868 -5.45464,50.18332 l -0.45488,26.35197 H 111.2679 59.491305 l 0.442489,-30.93492 c 0.473409,-33.09663 1.516719,-43.44572 6.49131,-64.39047 C 87.044222,125.56035 151.13812,54.625758 235.03345,25.770182 c 31.74959,-10.920189 57.09704,-14.714058 92.63354,-13.864893 26.87034,0.642082 42.61134,2.996161 66.57682,9.956619 69.28015,20.121505 128.63636,70.079185 160.36701,134.974302 10.65479,21.79103 16.78735,39.44813 21.57278,62.11315 5.48541,25.98025 5.32939,21.42555 5.70342,166.49905 l 0.34343,133.20275 6.40715,11.33 c 19.09403,33.76472 31.45372,71.25835 37.1618,112.73195 2.32496,16.89257 2.32301,59.20919 -0.004,76.07699 -7.63793,55.37683 -26.7792,102.86927 -58.69887,145.64087 -53.22574,71.32146 -133.38963,115.88434 -221.89064,123.34841 -12.84353,1.08322 -39.12781,1.03519 -52.24564,-0.0954 z M 348.4143,882.73351 C 418.52115,873.18022 479.41544,826.53279 507.65411,760.7495 534.5524,698.08865 527.83345,624.65974 490.01797,568.011 470.3283,538.51528 442.1484,513.57349 410.80265,497.89821 c -17.87571,-8.93923 -41.82808,-16.30703 -62.89247,-19.34585 -14.57378,-2.10247 -41.08738,-2.1262 -55.4614,-0.0496 -44.42017,6.4172 -82.81867,25.20951 -114.39396,55.98466 -11.99756,11.69354 -19.67937,20.91039 -28.56064,34.26788 -28.54956,42.93868 -39.52438,96.80668 -30.23427,148.39962 11.06729,61.46249 50.64344,115.22479 106.33129,144.44594 37.3843,19.61672 80.06164,26.95969 122.8231,21.13269 z"
     id="path4295"
     inkscape:connector-curvature="0" />
  <path
     style="fill:#008000;stroke-width:0.91659027"
     d="m 308.08433,766.82561 c -8.97678,-1.36237 -22.93867,-6.46711 -31.40466,-11.48215 -10.05452,-5.95606 -23.381,-19.29585 -29.42934,-29.45875 -5.87477,-9.87126 -10.15464,-22.53322 -11.60444,-34.33158 -2.22676,-18.12122 2.04264,-38.03567 11.59544,-54.08656 6.05777,-10.17842 19.3768,-23.51342 29.43834,-29.47363 30.45729,-18.04215 68.89348,-15.90738 96.41824,5.35511 15.46862,11.94931 26.23988,28.19719 31.31632,47.23903 2.94879,11.06093 3.00045,30.00503 0.11324,41.52232 -7.90759,31.544 -32.57795,55.84734 -64.36248,63.40496 -7.57184,1.80041 -24.34124,2.48583 -32.08066,1.31125 z"
     id="path4297"
     inkscape:connector-curvature="0" />
</svg>
